<svg id="undraw_innovative_b409" xmlns="http://www.w3.org/2000/svg" width="251" height="186" viewBox="0 0 251 186">
  <circle id="Oval" cx="34.5" cy="34.5" r="34.5" transform="translate(71 38)" fill="#6c63ff"/>
  <path id="Shape" d="M0,34.5A34.5,34.5,0,1,1,34.5,69,34.539,34.539,0,0,1,0,34.5Z" transform="translate(75 32)" fill="#3f3d56"/>
  <path id="Shape-2" data-name="Shape" d="M0,118V0H216V118Z" fill="#3f3d56"/>
  <rect id="Rectangle" width="47" height="5" transform="translate(8 9)" fill="#f2f2f2"/>
  <rect id="Rectangle-2" data-name="Rectangle" width="47" height="5" transform="translate(78 9)" fill="#f2f2f2"/>
  <rect id="Rectangle-3" data-name="Rectangle" width="47" height="5" transform="translate(149 9)" fill="#f2f2f2"/>
  <path id="Shape-3" data-name="Shape" d="M0,6V0H48V6Z" transform="translate(9 6)" fill="#3f3d56"/>
  <path id="Shape-4" data-name="Shape" d="M0,6V0H48V6Z" transform="translate(81 6)" fill="#3f3d56"/>
  <path id="Shape-5" data-name="Shape" d="M0,6V0H48V6Z" transform="translate(152 6)" fill="#3f3d56"/>
  <rect id="Rectangle-4" data-name="Rectangle" width="220" height="1" transform="translate(31 181)" fill="#2f2e41"/>
  <path id="Path" d="M0,32.661,16.538,0,21,2.677,2.1,34,0,32.661Z" transform="translate(105 96)" fill="#3f3d56"/>
  <path id="Path-2" data-name="Path" d="M1.061,8.259S4.142,10.684,4.492,5.5A5.954,5.954,0,0,1,6.653,1.221a4.722,4.722,0,0,1,5.816-.4,5.02,5.02,0,0,1,2.514,4.923,7.567,7.567,0,0,1-3.776,5.914,8.063,8.063,0,0,1-10.146-1S-1.327,7.994,1.061,8.259Z" transform="translate(93 128)" fill="#6c63ff"/>
  <circle id="Oval-2" data-name="Oval" cx="6.5" cy="6.5" r="6.5" transform="translate(118 46)" fill="#ffb8b8"/>
  <path id="Path-3" data-name="Path" d="M0,1.738s1.613,8.927.968,10.644S10,11.7,10,11.7,8.065,2.768,8.387.708,0,1.738,0,1.738Z" transform="translate(121 54)" fill="#ffb8b8"/>
  <path id="Path-4" data-name="Path" d="M0,0,.6,9.333,3.578,23.991,4.5,28,6,21.778,4.5,7.6,3.99,1.224,0,0Z" transform="translate(110 86)" fill="#ffb8b8"/>
  <path id="Path-5" data-name="Path" d="M6,0V9.435S4.941,21.566,2.824,24.6,0,12.468,0,12.468L1.659,1.348Z" transform="translate(140 85)" fill="#ffb8b8"/>
  <path id="Path-6" data-name="Path" d="M.849,1.152S-.815,3.2.516,24.028s-.665,35.85,3.659,35.85c0,0-1.331,4.439,2.328,4.78s5.322.683,5.655-.341,1-5.8,0-5.8c0,0,0,1.366.665-4.1S13.489,23,15.152,19.59l5.322,12.633s0,5.8,1,8.536S24.133,59.2,24.133,59.2l-.333,2.39s7.983,1.366,8.316,0a8.408,8.408,0,0,0,0-4.1c-.333-.683-.333-.683.333-2.049a4.232,4.232,0,0,0,.333-3.414c-.333-1.024-.333-23.217-.333-23.217S31.784,1.835,27.792.469.849,1.152.849,1.152Z" transform="translate(115 113)" fill="#2f2e41"/>
  <path id="Path-7" data-name="Path" d="M6.394,0,3.6,4.546S-.757,3.085.115,6.819a74.839,74.839,0,0,0,12.731-.162s1.744.649,2.093-.325-.872-4.384-1.918-4.384S6.394,0,6.394,0Z" transform="translate(113 175)" fill="#2f2e41"/>
  <path id="Path-8" data-name="Path" d="M1.983,1.262S-.813,7.369.235,7.708,10.719,9.4,11.418,9.744s4.193.679,4.543-1.357a2.5,2.5,0,0,0-1.747-2.714S10.369,4.994,9.321,1.6,1.983,1.262,1.983,1.262Z" transform="translate(137 172)" fill="#2f2e41"/>
  <path id="Path-9" data-name="Path" d="M21.76.763s-9.18-1.717-11.22,0S0,5.913,0,7.629,4.42,26.168,4.42,26.168s-2.38,25.4,0,26.092,6.46-1.373,11.22,1.03S34,51.23,34,51.23s-5.1-21.972-3.74-26.092,2.38-18.2,2.38-18.2S26.86.763,21.76.763Z" transform="translate(110 64)" fill="#8985a8"/>
  <path id="Path-10" data-name="Path" d="M5.88,0,3.517.667S-1.547,16.333.478,17a73.207,73.207,0,0,0,8.44,2C9.593,19,5.88,0,5.88,0Z" transform="translate(107 71)" fill="#8985a8"/>
  <path id="Path-11" data-name="Path" d="M0,0,5.371,2s7.049,13,5.371,14.667S1.678,20,1.678,20Z" transform="translate(138 69)" fill="#8985a8"/>
  <path id="Path-12" data-name="Path" d="M7.33.06A3.532,3.532,0,0,0,5.721.133,4.187,4.187,0,0,0,4.577.906,13.36,13.36,0,0,1,2.621,2.242,4.565,4.565,0,0,0,1.1,3.341a3.372,3.372,0,0,0-.429.838A10.326,10.326,0,0,0,.158,9.642a2.567,2.567,0,0,0,.226.75c.352.668,1.129.932,1.784,1.282a15.363,15.363,0,0,1,3.2,2.775,6.292,6.292,0,0,0,1.266,1.006c1.455.817,3.232.551,4.865.262a.864.864,0,0,0,.622-.268.918.918,0,0,0,.253-.644l1.289-5.974A10.029,10.029,0,0,0,14,6.112a7.851,7.851,0,0,0-1.884-4.489C10.911.423,8.9.232,7.33.06Z" transform="translate(117 44)" fill="#2f2e41"/>
  <ellipse id="Oval-3" data-name="Oval" cx="9.5" cy="0.5" rx="9.5" ry="0.5" transform="translate(89 180)" fill="#6c63ff"/>
  <ellipse id="Oval-4" data-name="Oval" cx="9.5" cy="0.5" rx="9.5" ry="0.5" transform="translate(86 181)" fill="#6c63ff"/>
  <ellipse id="Oval-5" data-name="Oval" cx="5" cy="0.5" rx="5" ry="0.5" transform="translate(82 179)" fill="#6c63ff"/>
  <ellipse id="Oval-6" data-name="Oval" cx="5" cy="0.5" rx="5" ry="0.5" transform="translate(99 185)" fill="#6c63ff"/>
</svg>
