<svg xmlns="http://www.w3.org/2000/svg" xmlns:xlink="http://www.w3.org/1999/xlink" width="287.763" height="198" viewBox="0 0 287.763 198">
  <defs>
    <linearGradient id="linear-gradient" x1="0.5" y1="1.001" x2="0.5" gradientUnits="objectBoundingBox">
      <stop offset="0" stop-color="gray" stop-opacity="0.251"/>
      <stop offset="0.54" stop-color="gray" stop-opacity="0.122"/>
      <stop offset="1" stop-color="gray" stop-opacity="0.102"/>
    </linearGradient>
    <linearGradient id="linear-gradient-2" x1="0.03" y1="0.521" x2="1.155" y2="0.485" xlink:href="#linear-gradient"/>
  </defs>
  <g id="undraw_going_up_ttm5" transform="translate(0.001 0)">
    <path id="Path" d="M31.018,5.175a1.873,1.873,0,0,0,.347-1.05c0-2.28-4.7-4.125-10.5-4.125s-10.5,1.845-10.5,4.125A1.931,1.931,0,0,0,10.8,5.3C4.348,6.008,0,7.343,0,8.875,0,11.153,9.612,13,21.5,13S43,11.153,43,8.875C42.987,7.262,38.1,5.85,31.018,5.175Z" transform="translate(169 54)" fill="#6c63ff" opacity="0.1"/>
    <g id="Group" transform="translate(212 15)" opacity="0.2">
      <path id="Path-2" data-name="Path" d="M.114,7.759A12.022,12.022,0,0,0,0,9.741q6.622.106,13.3.444c.03-.172.061-.351.086-.53a10.49,10.49,0,0,0-.621-5.479A6.291,6.291,0,0,0,8,.052,6.318,6.318,0,0,0,2.269,2.663,10.485,10.485,0,0,0,.114,7.759Z" transform="translate(17.64 157.673)" fill="#3f3d56"/>
      <ellipse id="Oval" cx="8.744" cy="6.708" rx="8.744" ry="6.708" transform="translate(18.05 163.512) rotate(-81.82)" fill="#3f3d56"/>
      <ellipse id="Oval-2" data-name="Oval" cx="8.744" cy="6.708" rx="8.744" ry="6.708" transform="translate(19.576 152.936) rotate(-81.82)" fill="#3f3d56"/>
      <ellipse id="Oval-3" data-name="Oval" cx="8.744" cy="6.708" rx="8.744" ry="6.708" transform="translate(21.102 142.358) rotate(-81.82)" fill="#3f3d56"/>
      <ellipse id="Oval-4" data-name="Oval" cx="8.744" cy="6.708" rx="8.744" ry="6.708" transform="translate(22.628 131.78) rotate(-81.82)" fill="#3f3d56"/>
      <path id="Path-3" data-name="Path" d="M65.6,55.144a32.511,32.511,0,0,0,3-3.279l-17.034-5.34,18.848,2.84a31.941,31.941,0,0,0,4.228-25.013L47.437,33.8l25.807-13.74A32.1,32.1,0,1,0,15.605,47.99a32.071,32.071,0,0,0-4.459,5.257L32.1,68.2,9.123,56.678a31.883,31.883,0,0,0,.836,30.467,31.892,31.892,0,0,0-2.766,43.326A32.088,32.088,0,0,0,59.949,94.3,31.9,31.9,0,0,0,65.6,55.144Z" transform="translate(0.205 0.104)" fill="#6c63ff"/>
      <path id="Path-4" data-name="Path" d="M5.979.327a31.728,31.728,0,0,0,3.98,20.551A31.892,31.892,0,0,0,7.193,64.2,32.088,32.088,0,0,0,59.949,28.032C64.988,23.254,6.49-3.227,5.979.327Z" transform="translate(0.203 66.371)" opacity="0.1"/>
    </g>
    <g id="Group-2" data-name="Group" transform="translate(0 24)" opacity="0.2">
      <path id="Path-5" data-name="Path" d="M.154,8.7A10.349,10.349,0,0,0,.6,10.391Q6.007,8.647,11.527,7.086c-.02-.153-.043-.31-.071-.468A9.365,9.365,0,0,0,9.481,2.2,5.307,5.307,0,0,0,4.5.073,5.457,5.457,0,0,0,.538,3.846,9.5,9.5,0,0,0,.154,8.7Z" transform="translate(42.091 138.454)" fill="#3f3d56"/>
      <ellipse id="Oval-5" data-name="Oval" cx="5.746" cy="7.701" rx="5.746" ry="7.701" transform="matrix(0.988, -0.156, 0.156, 0.988, 39.434, 130.125)" fill="#3f3d56"/>
      <ellipse id="Oval-6" data-name="Oval" cx="5.762" cy="7.723" rx="5.762" ry="7.723" transform="matrix(0.987, -0.16, 0.16, 0.987, 38.536, 121.04)" fill="#3f3d56"/>
      <ellipse id="Oval-7" data-name="Oval" cx="5.746" cy="7.701" rx="5.746" ry="7.701" transform="matrix(0.988, -0.156, 0.156, 0.988, 36.235, 111.578)" fill="#3f3d56"/>
      <ellipse id="Oval-8" data-name="Oval" cx="5.746" cy="7.701" rx="5.746" ry="7.701" transform="matrix(0.988, -0.156, 0.156, 0.988, 34.638, 102.302)" fill="#3f3d56"/>
      <path id="Path-6" data-name="Path" d="M51.728,41.448a28.76,28.76,0,0,0,1.556-3.56l-15.278.239,16.08-2.84a28.843,28.843,0,0,0,.477-12.067,28.483,28.483,0,0,0-3.751-10.026L31.242,28.63,48.53,9.985A27.022,27.022,0,0,0,22.71.45C7.749,3.2-2.218,17.867.424,33.2A28.167,28.167,0,0,0,9.175,49.3a28.583,28.583,0,0,0-2.216,5.632L28,61.644,6.226,58.362a28.842,28.842,0,0,0,.107,9.169,28.167,28.167,0,0,0,8.751,16.1,28.764,28.764,0,0,0-2.835,18.233c2.642,15.335,16.9,25.528,31.853,22.77s24.927-17.422,22.285-32.757a28.175,28.175,0,0,0-8.751-16.1,28.78,28.78,0,0,0,2.835-18.236A28.175,28.175,0,0,0,51.728,41.448Z" transform="translate(-0.001 0.203)" fill="#6c63ff"/>
      <path id="Path-7" data-name="Path" d="M0,.858a28.167,28.167,0,0,0,8.751,16.1A28.764,28.764,0,0,0,5.92,35.189c2.642,15.335,16.9,25.528,31.853,22.77S62.7,40.536,60.058,25.2a28.175,28.175,0,0,0-8.751-16.1C54.122,3.711-.534-2.257,0,.858Z" transform="translate(6.336 66.876)" opacity="0.1"/>
    </g>
    <path id="Path-8" data-name="Path" d="M0,0C0,13.267,8.05,24,18,24" transform="translate(29 150)" fill="#46455b"/>
    <path id="Path-9" data-name="Path" d="M0,24C0,10.735,9.392,0,21,0" transform="translate(47 150)" fill="#6c63ff"/>
    <path id="Path-10" data-name="Path" d="M0,0C0,12.714,5.366,23,12,23" transform="translate(35 151)" fill="#6c63ff"/>
    <path id="Path-11" data-name="Path" d="M0,31C0,13.866,10.735,0,24,0" transform="translate(47 143)" fill="#46455b"/>
    <ellipse id="Oval-9" data-name="Oval" cx="129" cy="4" rx="129" ry="4" transform="translate(5 180)" fill="#6c63ff" opacity="0.1"/>
    <ellipse id="Oval-10" data-name="Oval" cx="4.5" cy="0.5" rx="4.5" ry="0.5" transform="translate(40 176)" fill="#6c63ff" opacity="0.1"/>
    <path id="Path-12" data-name="Path" d="M0,1.428s2.689-.08,3.5-.649S7.63-.463,7.832.444,11.868,4.977,8.841,5,1.793,4.535.984,4.05,0,1.428,0,1.428Z" transform="translate(42 171)" fill="#a8a8a8"/>
    <path id="Path-13" data-name="Path" d="M8.892,2.736c-3.027.019-7.051-.392-7.858-.8C.419,1.628.172.513.091,0H0S.172,1.795.979,2.2,5.8,3.02,8.837,3c.875,0,1.178-.263,1.163-.645C9.878,2.588,9.543,2.732,8.892,2.736Z" transform="translate(42 173)" opacity="0.2"/>
    <path id="Shape" d="M31,83a31.095,31.095,0,0,1-3.36-62A38.642,38.642,0,0,1,99.974,31.378,25.578,25.578,0,0,1,124,57.063,25.963,25.963,0,0,1,98.167,83Z" transform="translate(74 18)" fill="#6c63ff"/>
    <path id="Shape-2" data-name="Shape" d="M30.19,67.548a2.37,2.37,0,0,1-.311-1.049A7.4,7.4,0,0,0,28,62.646a2.217,2.217,0,0,1-.439-.57A.782.782,0,0,1,27.5,61.7l-1.562-2.57a9.827,9.827,0,0,0-1.958-2.489l-.038-.03a20.928,20.928,0,0,1-2.874,1.837,1.752,1.752,0,0,1-1.118.223c-.609-.138-.933-.791-1.184-1.373l-2.229-5.27a10.478,10.478,0,0,1-1.206-5.175A13.091,13.091,0,0,1,16.5,43.372a.8.8,0,0,1-.834-.3,1.434,1.434,0,0,1-.085-.123c-.386.209-.79.394-1.189.585l-.03.015-.133.062-.16.08-.1.048-.25.133c-.677.369-1.317.818-2.006,1.177a4.536,4.536,0,0,1-2.214.612h-.14a2.185,2.185,0,0,0-.531.021.691.691,0,0,0-.311.14c.06.62.248,1.222.334,1.837a11.716,11.716,0,0,1,.077,1.218c.018.689.032,1.392.048,2.1.007.289.02.577.02.863.015.317.023.63.023.941-.218.038-.438.065-.661.086l.128,1.659a.491.491,0,0,1,.1-.066,1.008,1.008,0,0,1,.735.033c.364.12,1.865.462,2.005.851.091.226-.308.715-.411.919a8.678,8.678,0,0,0-.471,1.1c-.1.284-.171.574-.289.848a7.98,7.98,0,0,1-.587,1.021c-.855,1.413-1.348,3.067-2.449,4.291a2.025,2.025,0,0,1-.715.55.888.888,0,0,1-.863-.077,1.133,1.133,0,0,1-.223-1.256,8.033,8.033,0,0,0,.472-1.287,3.2,3.2,0,0,0,0-.753c-.062-.688-.122-1.375-.185-2.063a2.434,2.434,0,0,1,.028-.873.935.935,0,0,1,.288-.457,2.6,2.6,0,0,1-.153-.654c-.175-1.348-.083-2.713-.274-4.058a1.816,1.816,0,0,1-.023-.213L0,50.547c.065-.132.128-.265.188-.4l.135-.319c.011-.028.023-.055.035-.083l.158-.4c.05-.136.1-.274.148-.41a29.468,29.468,0,0,0,1.2-5.471,7.485,7.485,0,0,1,.454-1.939,3.565,3.565,0,0,1,1.223-1.486,6.967,6.967,0,0,1,1.941-.821L7.82,38.5l1.424-.431-.1-1.273a3.466,3.466,0,0,1,.017-.979,1.155,1.155,0,0,1,.524-.785,1.766,1.766,0,0,0,.522-.282.8.8,0,0,0,.155-.344c.2-.761.2-1.571.462-2.309a7.706,7.706,0,0,0,.469-1.255c.042-.251.032-.5.083-.753a11.416,11.416,0,0,0,.366-1.225,4.394,4.394,0,0,1,.03-.7,2.24,2.24,0,0,1,.2-.439,8.849,8.849,0,0,0,.607-2.154,12.545,12.545,0,0,1,1.67-4.015l.07-.108a4.785,4.785,0,0,1,.311-.874,5.06,5.06,0,0,1,3.127-2.444.636.636,0,0,1,.348,0c.113-.086.233-.16.341-.251a1.9,1.9,0,0,0,.577-1.558,3.842,3.842,0,0,0-.153-.627,3.431,3.431,0,0,1-.948-1,4.877,4.877,0,0,1-1.873-3.857c0-.1.013-.2.013-.3v-.091a4.9,4.9,0,0,1,.752-2.258,4.913,4.913,0,0,1,.027-.814,4.86,4.86,0,0,1,2.69-3.787,3.06,3.06,0,0,1-.027-.911,2.966,2.966,0,0,1,5.912.133v.414a1.283,1.283,0,0,0-.015.175,1.481,1.481,0,0,0-.025.171.06.06,0,0,0,0,.025l-.03.143v.013c-.013.052-.028.1-.043.156a1.664,1.664,0,0,1-.052.16,2.882,2.882,0,0,1-.239.5,4.886,4.886,0,0,1,1.352,3.227.048.048,0,0,0,0,.023v.3c0,.055,0,.088,0,.166s-.023.163-.023.251a4.843,4.843,0,0,1-.382,1.4,4.856,4.856,0,0,1,.529,1.3c.017.068.032.132.045.2v.02a.98.98,0,0,1,.032.188v.038l.023.176a.308.308,0,0,1,0,.058.7.7,0,0,1,.015.164v.688c0,.077-.022.158-.022.236a4.82,4.82,0,0,1-4.039,4.221,1.916,1.916,0,0,0,.569.886,3.4,3.4,0,0,0,.487-.452,3.162,3.162,0,0,1,2.182,1.536,5.91,5.91,0,0,1,.787,2.593,5.283,5.283,0,0,1-.014,1.4v.085a44.757,44.757,0,0,1-.1,6.525,12.894,12.894,0,0,1-.251,2.151,9.344,9.344,0,0,1-1.281,2.783,4.082,4.082,0,0,0,.2.356c-.093.025-.187.045-.281.063a5.6,5.6,0,0,1,.382.913,12.373,12.373,0,0,1,.461,1.571c.019.085.034.168.046.25v.06a1.6,1.6,0,0,1,.024.184V38.2a.753.753,0,0,1,.013.158v.588c0,.048-.017.1-.017.148l-.015.091c-.01.055-.02.108-.032.16a.614.614,0,0,1-.018.078,2.439,2.439,0,0,1-.07.236,7.48,7.48,0,0,1-1.146,1.8,3.188,3.188,0,0,0-.751,1.966.677.677,0,0,1-.013.266.585.585,0,0,1-.176.223c-.083.088-.161.168-.239.251l-.067.073c-.055.063-.111.123-.163.188L23,44.509c-.052.066-.105.136-.155.206l-.05.067c-.063.1-.125.191-.185.286a5.511,5.511,0,0,0-.409.831.984.984,0,0,0-.088.414c.038.445.564.623.958.823a3.637,3.637,0,0,1,1.565,2.241,18.109,18.109,0,0,0,.817,2.693c.233.48.549.939.835,1.406.035.055.07.113.1.17a.111.111,0,0,0,.017.028c.028.053.058.1.085.153l.025.045c.025.048.05.1.073.143l.03.056c.023.042.042.087.063.132l.03.063.053.133a.193.193,0,0,1,.027.068c.017.044.032.088.045.133a.34.34,0,0,1,.025.07c.015.048.032.123.038.143a.242.242,0,0,1,.018.063,1.048,1.048,0,0,1,.04.211c-.108.028-.211.06-.316.1.733.7,1.247,1.653,1.926,2.407a.169.169,0,0,1,.022-.05.493.493,0,0,1,.446-.17c.594-.015,1.185-.008,1.779.014a1.033,1.033,0,0,1,.535.123.921.921,0,0,1,.3.384c.657,1.29.535,2.833.785,4.266A18.813,18.813,0,0,1,33,65.136a8.494,8.494,0,0,1-.188,1.616,1.581,1.581,0,0,1-.2.608,1.225,1.225,0,0,1-.486.4,2.076,2.076,0,0,1-.945.239A1.179,1.179,0,0,1,30.19,67.548Z" transform="translate(77)" fill="url(#linear-gradient)"/>
    <path id="Path-14" data-name="Path" d="M8.675,4.654a3.268,3.268,0,0,0-.187-3.437A2.774,2.774,0,0,0,5.446.107a3.027,3.027,0,0,0-2.105,2.6,3.237,3.237,0,0,0,.027.933A4.994,4.994,0,0,0,.739,8.352,5.249,5.249,0,0,0,.983,14.1a4.443,4.443,0,0,0,5.144,1.635,4.944,4.944,0,0,0,3.125-4.674v-.236a5.234,5.234,0,0,0-.565-6.167Z" transform="translate(93 1)" fill="#46455b"/>
    <g id="Group-3" data-name="Group" transform="translate(93 3)" opacity="0.1">
      <path id="Path-15" data-name="Path" d="M.1.214.138.191Q.124.114.117.036a.155.155,0,0,0,0,.033A1.425,1.425,0,0,0,.1.214Z" transform="translate(3.262 0.001)"/>
      <path id="Path-16" data-name="Path" d="M9.788.19a4.9,4.9,0,0,1-.7,2.033v.225A4.671,4.671,0,0,1,4.726,7.191,4.626,4.626,0,0,1,.017,2.832c0,.13-.017.25-.017.39a4.661,4.661,0,0,0,4.543,4.77,4.661,4.661,0,0,0,4.543-4.77V2.995a4.874,4.874,0,0,0,.7-2.032A4.831,4.831,0,0,0,9.8,0,.733.733,0,0,1,9.788.19Z" transform="translate(0.076 4.88)"/>
      <path id="Path-17" data-name="Path" d="M.374,0A3.078,3.078,0,0,1,0,1.135c.081.085.155.175.238.265A3.081,3.081,0,0,0,.386.748,3.017,3.017,0,0,0,.374,0Z" transform="translate(8.607 0.035)"/>
    </g>
    <path id="Path-18" data-name="Path" d="M.291,4.782a2.146,2.146,0,0,0,.21.765A.826.826,0,0,0,1.111,6a1.216,1.216,0,0,0,.673-.2,2.311,2.311,0,0,0,1.047-.887,2.444,2.444,0,0,0,.142-1.336L2.7.013C2.037-.007,1.372-.007.708.03S-.064.224.028.876C.209,2.17.113,3.486.291,4.782Z" transform="translate(83 53)" fill="#fbbebe"/>
    <path id="Path-19" data-name="Path" d="M2.528,4.172l1.665,2.5a.646.646,0,0,0,.365.318A.589.589,0,0,0,4.9,6.937,4.279,4.279,0,0,0,6.293,5.865a2.364,2.364,0,0,0,.668-.949A1.155,1.155,0,0,0,6.63,3.776a3.921,3.921,0,0,0-.625-.422C4.687,2.526,4.093.956,2.793.107A.529.529,0,0,0,2.538,0a.589.589,0,0,0-.27.085L.483.991c-.765.391-.528.439.059.861A9.553,9.553,0,0,1,2.528,4.172Z" transform="translate(101 55)" fill="#fbbebe"/>
    <path id="Path-20" data-name="Path" d="M4.015.078a1.027,1.027,0,0,0-.72-.023A.753.753,0,0,0,2.918.62a6.622,6.622,0,0,1-.106.688,2.352,2.352,0,0,1-.7.939,1.049,1.049,0,0,1-.44.293c-.234.056-.479-.047-.716,0a.764.764,0,0,0-.563.549,2.058,2.058,0,0,0-.027.8l.182,1.9a2.775,2.775,0,0,1,0,.7A7.177,7.177,0,0,1,.086,7.685,1.023,1.023,0,0,0,.3,8.858a.924.924,0,0,0,.848.07,1.961,1.961,0,0,0,.7-.507C2.936,7.3,3.42,5.768,4.261,4.468a7.52,7.52,0,0,0,.575-.939c.116-.253.189-.521.283-.781a7.608,7.608,0,0,1,.465-1.016c.1-.188.492-.638.4-.847C5.857.5,4.379.188,4.015.078Z" transform="translate(83 55)" fill="#46455b"/>
    <path id="Path-21" data-name="Path" d="M1.843,2.676a2.234,2.234,0,0,1-1.265.953,1.232,1.232,0,0,0-.428.193.523.523,0,0,0-.076.636,2.124,2.124,0,0,0,.48.533A6.6,6.6,0,0,1,2.6,8.593a2.041,2.041,0,0,0,.341.983,1.879,1.879,0,0,0,2.115.2A1.344,1.344,0,0,0,5.583,9.4,1.347,1.347,0,0,0,5.8,8.831,6.806,6.806,0,0,0,6,7.319,14.4,14.4,0,0,0,5.379,4.5c-.273-1.341-.142-2.786-.856-4A.905.905,0,0,0,4.2.135,1.286,1.286,0,0,0,3.621.021C2.977,0,2.329-.006,1.683.006A.584.584,0,0,0,1.2.166a.44.44,0,0,0,.071.46C1.664,1.309,2.312,1.85,1.843,2.676Z" transform="translate(105 58)" fill="#46455b"/>
    <path id="Path-22" data-name="Path" d="M15.7.984a.91.91,0,0,0-.224,1.167c.138.22.382.425.328.677s-.385.349-.655.392a54.842,54.842,0,0,0-7.02,1.726L5.7,5.656a7.363,7.363,0,0,0-2.018.814A3.564,3.564,0,0,0,2.41,7.943a7.158,7.158,0,0,0-.473,1.926A23,23,0,0,1,0,16.9l5.884,1.878a8.853,8.853,0,0,0,1.765.43,6.648,6.648,0,0,0,1.719-.081c-.036-1.276-.06-2.593-.1-3.871a10.4,10.4,0,0,0-.081-1.208c-.088-.612-.283-1.208-.346-1.824a1.543,1.543,0,0,1,1.019-.154,4.931,4.931,0,0,0,2.3-.6c.712-.359,1.378-.8,2.08-1.17A11.726,11.726,0,0,0,17.683,8.32c-.46,1.706-1.56,3.192-1.76,4.943A10.115,10.115,0,0,0,17.179,18.4L19.5,23.623c.26.576.6,1.226,1.227,1.362a1.9,1.9,0,0,0,1.162-.222c2.132-.97,3.838-2.8,6.115-3.378-.172-1.1-1.061-2-1.56-3a17.153,17.153,0,0,1-.848-2.673,3.6,3.6,0,0,0-1.628-2.224c-.408-.2-.957-.377-.993-.819a.883.883,0,0,1,.091-.412A5.323,5.323,0,0,1,24.448,10.3a.633.633,0,0,0,.182-.222.686.686,0,0,0,.013-.253,3.074,3.074,0,0,1,.78-1.951,7.466,7.466,0,0,0,1.191-1.787A5.339,5.339,0,0,0,26.2,2.51,3.568,3.568,0,0,0,25.5,1.2,3.487,3.487,0,0,0,23.312.383C20.751.1,17.738-.555,15.7.984Z" transform="translate(77 35)" fill="#46455b"/>
    <g id="Group-4" data-name="Group" transform="translate(77 36)" opacity="0.1">
      <path id="Path-23" data-name="Path" d="M2.445,1.962a2.973,2.973,0,0,0-.778,1.93.673.673,0,0,1-.013.25.627.627,0,0,1-.181.22A5.267,5.267,0,0,0,.091,6.3.873.873,0,0,0,0,6.707a.791.791,0,0,0,.519.585,5.3,5.3,0,0,1,.959-1.125.627.627,0,0,0,.181-.22.673.673,0,0,0,.013-.25,3.028,3.028,0,0,1,.778-1.93A7.383,7.383,0,0,0,3.638,2,3.544,3.544,0,0,0,3.7,0q-.026.1-.062.195A7.28,7.28,0,0,1,2.445,1.962Z" transform="translate(22.975 3.17)"/>
      <path id="Path-24" data-name="Path" d="M0,.42A.484.484,0,0,0,.371.1a.311.311,0,0,0,0-.1L.259.078A.872.872,0,0,0,0,.42Z" transform="translate(15.447 0.052)"/>
      <path id="Path-25" data-name="Path" d="M7.633,2.065a8.885,8.885,0,0,1-1.76-.425L.687,0A14.1,14.1,0,0,1,0,1.587L5.872,3.445a8.885,8.885,0,0,0,1.76.425,6.68,6.68,0,0,0,1.714-.08C9.328,3.2,9.315,2.6,9.3,1.992a6.651,6.651,0,0,1-1.667.073Z" transform="translate(0.057 14.292)"/>
      <path id="Path-26" data-name="Path" d="M5.981,9.83a1.912,1.912,0,0,1-1.159.22c-.63-.135-.97-.778-1.224-1.347l-2.31-5.17A13.8,13.8,0,0,1,.078,0C.063.085.05.17.037.25A9.8,9.8,0,0,0,1.289,5.33L3.6,10.5c.259.57.594,1.212,1.224,1.347a1.912,1.912,0,0,0,1.159-.22c2.126-.96,3.827-2.767,6.1-3.342a4.172,4.172,0,0,0-.7-1.582C9.448,7.435,7.884,8.967,5.981,9.83Z" transform="translate(15.91 12.02)"/>
      <path id="Path-27" data-name="Path" d="M8.812,0A11.887,11.887,0,0,1,5.387,1.957c-.708.362-1.371.8-2.074,1.158a4.949,4.949,0,0,1-2.3.6A1.61,1.61,0,0,0,0,3.865c.057.562.226,1.11.321,1.667a3.225,3.225,0,0,1,.695-.015,4.947,4.947,0,0,0,2.3-.6c.71-.355,1.374-.8,2.074-1.158.778-.4,1.626-.707,2.372-1.148A19.3,19.3,0,0,0,8.812,0Z" transform="translate(8.89 5.582)"/>
    </g>
    <path id="Path-28" data-name="Path" d="M1.42,2.07A1.864,1.864,0,0,1,.811,3.638c-.146.121-.318.21-.458.336a1.181,1.181,0,0,0-.348.955A1.2,1.2,0,0,0,.533,5.8a2.429,2.429,0,0,0,1.633.113,9.678,9.678,0,0,0,2.144-.541A3.523,3.523,0,0,0,6,4.033a2,2,0,0,1-.961-1.667C5,1.7,5.19.947,4.756.431A1.789,1.789,0,0,0,2.9.108c-.32.087-.63.205-.95.29-.164.041-.7.044-.794.159C.973.767,1.4,1.734,1.42,2.07Z" transform="translate(95 15)" fill="#fbbebe"/>
    <path id="Path-29" data-name="Path" d="M1.42,2.07A1.864,1.864,0,0,1,.811,3.638c-.146.121-.318.21-.458.336a1.181,1.181,0,0,0-.348.955A1.2,1.2,0,0,0,.533,5.8a2.429,2.429,0,0,0,1.633.113,9.678,9.678,0,0,0,2.144-.541A3.523,3.523,0,0,0,6,4.033a2,2,0,0,1-.961-1.667C5,1.7,5.19.947,4.756.431A1.789,1.789,0,0,0,2.9.108c-.32.087-.63.205-.95.29-.164.041-.7.044-.794.159C.973.767,1.4,1.734,1.42,2.07Z" transform="translate(95 15)" opacity="0.1"/>
    <circle id="Oval-11" data-name="Oval" cx="3.5" cy="3.5" r="3.5" transform="translate(96 10)" fill="#fbbebe"/>
    <path id="Path-30" data-name="Path" d="M.681,1.567A2.861,2.861,0,0,1,.4,2.4,4.632,4.632,0,0,0,.044,4.922,2.629,2.629,0,0,0,1.3,6.888a.719.719,0,0,0,.858-.066,4.272,4.272,0,0,1-.4-2.333.936.936,0,0,1,.082-.434.225.225,0,0,1,.146-.118.19.19,0,0,1,.17.049,4.221,4.221,0,0,0,.234,1.488c.062.179.169.378.33.373.223,0,.287-.389.278-.671a9,9,0,0,0-.526-3.349A4.416,4.416,0,0,1,2.028.7.772.772,0,0,0,1.912.3a.37.37,0,0,0-.167-.1C1.489.115.879-.164.667.134S.721,1.186.681,1.567Z" transform="translate(88 38)" fill="#fbbebe"/>
    <path id="Path-31" data-name="Path" d="M5.949,0c-.38-.046-.679.311-.887.64a12.535,12.535,0,0,0-1.65,4,8.747,8.747,0,0,1-.6,2.14,2.206,2.206,0,0,0-.2.435,4.745,4.745,0,0,0-.03.7,11.574,11.574,0,0,1-.361,1.217c-.049.253-.04.506-.084.759a7.516,7.516,0,0,1-.459,1.242c-.264.734-.262,1.538-.457,2.295a.8.8,0,0,1-.153.339c-.131.149-.343.185-.514.281a1.144,1.144,0,0,0-.519.782,3.457,3.457,0,0,0-.017.972l.153,2.006c.156-.068.247-.253.39-.362a1.08,1.08,0,0,1,.9-.1l.447.083A1.9,1.9,0,0,1,3.148,18c.232-.374.1-.923.457-1.171.116-.081.262-.106.383-.177a.883.883,0,0,0,.39-.7,2.655,2.655,0,0,0-.111-.832A2.422,2.422,0,0,0,5.42,13.679a12.265,12.265,0,0,0,.533-2.216A58.617,58.617,0,0,0,6.991,2.448,4.434,4.434,0,0,0,6.83.948C6.677.467,6.44.06,5.949,0Z" transform="translate(86 22)" fill="#6c63ff"/>
    <path id="Path-32" data-name="Path" d="M5.949,0c-.38-.046-.679.311-.887.64a12.535,12.535,0,0,0-1.65,4,8.747,8.747,0,0,1-.6,2.14,2.206,2.206,0,0,0-.2.435,4.745,4.745,0,0,0-.03.7,11.574,11.574,0,0,1-.361,1.217c-.049.253-.04.506-.084.759a7.516,7.516,0,0,1-.459,1.242c-.264.734-.262,1.538-.457,2.295a.8.8,0,0,1-.153.339c-.131.149-.343.185-.514.281a1.144,1.144,0,0,0-.519.782,3.457,3.457,0,0,0-.017.972l.153,2.006c.156-.068.247-.253.39-.362a1.08,1.08,0,0,1,.9-.1l.447.083A1.9,1.9,0,0,1,3.148,18c.232-.374.1-.923.457-1.171.116-.081.262-.106.383-.177a.883.883,0,0,0,.39-.7,2.655,2.655,0,0,0-.111-.832A2.422,2.422,0,0,0,5.42,13.679a12.265,12.265,0,0,0,.533-2.216A58.617,58.617,0,0,0,6.991,2.448,4.434,4.434,0,0,0,6.83.948C6.677.467,6.44.06,5.949,0Z" transform="translate(86 22)" opacity="0.1"/>
    <path id="Path-33" data-name="Path" d="M9.97,0A4.259,4.259,0,0,1,7.916,1.2a12.526,12.526,0,0,1-2.382.353A1.5,1.5,0,0,1,4.8,1.492a.508.508,0,0,1-.3-.606A.729.729,0,0,0,4.581.65c0-.208-.308-.226-.5-.165A5.092,5.092,0,0,0,.929,2.923a7.4,7.4,0,0,0-.56,2.243,18.882,18.882,0,0,0-.187,6.089A19.433,19.433,0,0,1,.8,14.447c.015.609-.088,1.215-.083,1.824a.926.926,0,0,0,.161.6c.093.109.234.178.3.307.108.213-.038.507.106.7.179.239.547.066.791-.1a6.255,6.255,0,0,1,4.182-1.058c1.764.19,3.529,1.142,5.248.665a2.423,2.423,0,0,1-.227-.411,12.1,12.1,0,0,1,.484-8.665,11.146,11.146,0,0,0,1.185-2.776,5.363,5.363,0,0,0,.018-1.408,5.863,5.863,0,0,0-.794-2.585A3.148,3.148,0,0,0,9.97,0Z" transform="translate(92 19)" fill="#6c63ff"/>
    <path id="Path-34" data-name="Path" d="M.161,1.162A4.548,4.548,0,0,0,0,2.432,10.354,10.354,0,0,0,.048,3.669a2.44,2.44,0,0,0,.269.973A.576.576,0,0,0,1,4.973a.93.93,0,0,0,.411-.623A7.792,7.792,0,0,0,1.545,3.5,18.58,18.58,0,0,0,2,1,.961.961,0,0,0,1.964.7,1.2,1.2,0,0,0,.974.006C.621.081.292.753.161,1.162Z" transform="translate(93 39)" fill="#fbbebe"/>
    <path id="Path-35" data-name="Path" d="M8.987,0c-.06.688.537,1.206.772,1.843a3.472,3.472,0,0,1,.162.928,49.207,49.207,0,0,1-.093,6.606A13.684,13.684,0,0,1,9.6,11.554a13.093,13.093,0,0,1-1.954,4.07,3.408,3.408,0,0,1-.419.572,3.089,3.089,0,0,1-.777.515L3.7,18.2a5.21,5.21,0,0,0-.978.626A2.959,2.959,0,0,0,1.908,20c-.534-.3-1.089-.577-1.619-.881C.165,19.046.023,18.954,0,18.8c-.028-.206.167-.353.3-.515a3.185,3.185,0,0,0,.463-1.046c.444-1.186,1.556-1.943,1.959-3.144A5.109,5.109,0,0,1,3.2,12.722a3.18,3.18,0,0,1,.525-.515,9.47,9.47,0,0,0,1.156-1.327,2.281,2.281,0,0,0,.382-.621,3.41,3.41,0,0,0,.09-1.088A15.154,15.154,0,0,1,6.161,5.7c.28-1.085.4-2.224.765-3.278A3.644,3.644,0,0,1,8.987,0Z" transform="translate(93 22)" opacity="0.1"/>
    <path id="Path-36" data-name="Path" d="M8.989,0c-.06.688.533,1.206.769,1.843a3.478,3.478,0,0,1,.164.928A49.66,49.66,0,0,1,9.83,9.376a13.7,13.7,0,0,1-.242,2.178,13.1,13.1,0,0,1-1.952,4.07,3.408,3.408,0,0,1-.418.572,3.084,3.084,0,0,1-.776.515L3.691,18.2a5.352,5.352,0,0,0-.977.626A2.982,2.982,0,0,0,1.906,20c-.533-.3-1.085-.577-1.617-.881C.165,19.046.024,18.954,0,18.8c-.03-.206.164-.353.3-.515a3.094,3.094,0,0,0,.462-1.046c.441-1.186,1.554-1.943,1.956-3.144a5.114,5.114,0,0,1,.476-1.371,3.007,3.007,0,0,1,.524-.515,9.466,9.466,0,0,0,1.155-1.327,2.282,2.282,0,0,0,.381-.621,3.484,3.484,0,0,0,.09-1.088,15.166,15.166,0,0,1,.8-3.474c.282-1.085.4-2.224.764-3.278A3.678,3.678,0,0,1,8.989,0Z" transform="translate(93 22)" fill="#6c63ff"/>
    <path id="Path-37" data-name="Path" d="M2.911.033A4.793,4.793,0,0,0,0,.615,1.8,1.8,0,0,1,.389.644,4.605,4.605,0,0,1,4.4,4.2,4.441,4.441,0,0,1,2.182,9a4.609,4.609,0,0,0,4.8-4.144A4.545,4.545,0,0,0,2.916.035Z" transform="translate(98 9)" fill="#46455b"/>
    <path id="Path-38" data-name="Path" d="M6.795,1.234a1.4,1.4,0,0,1,.041,1.39,1.614,1.614,0,0,0-.085-.169C6.1,1.363,4.1.911,2.276,1.446A3.405,3.405,0,0,0,.118,3C-.346,1.943.595.732,2.323.225,4.143-.31,6.144.142,6.795,1.234Z" transform="translate(96 9)" fill="#46455b"/>
    <g id="Group-5" data-name="Group" transform="translate(97 1)" opacity="0.1">
      <path id="Path-39" data-name="Path" d="M4.749,4.176A4.891,4.891,0,0,0,1.349,0,5.2,5.2,0,0,0,0,.507a1.989,1.989,0,0,1,.424.03A5.008,5.008,0,0,1,4.749,4.176Z" transform="translate(0.243 7.381)"/>
      <path id="Path-40" data-name="Path" d="M4.749,4.176A4.9,4.9,0,0,0,1.349,0,5.3,5.3,0,0,0,0,.523a2.026,2.026,0,0,1,.427.03A5.006,5.006,0,0,1,4.749,4.176Z" transform="translate(1.067 3.847)"/>
      <path id="Path-41" data-name="Path" d="M2.867,2.507A2.95,2.95,0,0,0,.816,0,3.153,3.153,0,0,0,0,.312a1.229,1.229,0,0,1,.267.02,3.021,3.021,0,0,1,2.6,2.174Z" transform="translate(2.971 0.241)"/>
      <path id="Path-42" data-name="Path" d="M5.12,0A4.884,4.884,0,0,1,1.179,5.115,5.082,5.082,0,0,1,0,6.019,5.2,5.2,0,0,0,4.14,4.226,4.663,4.663,0,0,0,5.12,0Z" transform="translate(2.621 10.898)"/>
    </g>
    <path id="Shape-3" data-name="Shape" d="M19.025,93.8l-4.051-.782a1.356,1.356,0,0,1-.674-.267.707.707,0,0,1-.19-.32,5.292,5.292,0,0,1-2.734-.033l-4.051-.782a1.342,1.342,0,0,1-.676-.267.78.78,0,0,1-.226-.595l-.088-.025c-.314-.106-.676-.333-.628-.661.043-.209.228-.355.3-.554a.753.753,0,0,0-.22-.719c-.177-.194-.4-.34-.57-.545-.525-.653-.311-1.589-.223-2.418.187-1.771-.342-3.545-.289-5.325.018-.6.1-1.2.155-1.794A36.724,36.724,0,0,0,4.9,74.461c-.058-2.028.3-4.066-.23-6.024a23.407,23.407,0,0,1-.565-3.5,15.443,15.443,0,0,1-.134-2.271c.023-.565.114-1.125.114-1.692a14.765,14.765,0,0,0-.162-1.89,18.775,18.775,0,0,1-.046-4.217c.218-1.928.815-3.814.955-5.742l-.327.113c-.165-1.455.788-4.742,1.117-6.168a1.807,1.807,0,0,0,.07-.542,5.418,5.418,0,0,0-.207-.7,6.932,6.932,0,0,1,.129-1.513,3.554,3.554,0,0,0-.187-1.048c-.529-1.823-1.137-3.623-1.742-5.421a5.85,5.85,0,0,1-.4-2.018,2.588,2.588,0,0,0-.828-1.978,2.419,2.419,0,0,1-.522-.532,1.419,1.419,0,0,1-.152-.568A9.414,9.414,0,0,1,1.9,26.186a6.482,6.482,0,0,1-.838-2.179,36.116,36.116,0,0,1-.99-5.068A8.665,8.665,0,0,1,.159,16.2a11.045,11.045,0,0,1,.553-1.64,50.929,50.929,0,0,1,2.881-6.6c.36-.631.008-1.41-.1-2.129a6.247,6.247,0,0,1,.392-2.578,4.139,4.139,0,0,1,.659-1.433,1.263,1.263,0,0,1,.87-.5,1.39,1.39,0,0,1,1.041.5,3.216,3.216,0,0,1,.835,2.338,4.672,4.672,0,0,1-.825,2.379,5.071,5.071,0,0,1-.825.961q-.35,1.688-.694,3.375a39.5,39.5,0,0,1-1.352,5.3A4.044,4.044,0,0,0,3.246,17.7a4.159,4.159,0,0,0,.57,1.6,11.7,11.7,0,0,1,1.03,3.39,1.135,1.135,0,0,1,.185.076c.712.358,1,1.272,1.724,1.582a5.155,5.155,0,0,0,1.36.174l.123.021a1.055,1.055,0,0,0,.021-.253,1.2,1.2,0,0,0-.013-.161A7.023,7.023,0,0,1,5.4,21.938a2.1,2.1,0,0,1-.37-.585,2.457,2.457,0,0,1-.116-.807,13.009,13.009,0,0,1,.109-2.7,4.467,4.467,0,0,1,1.159-2.4c.311-.31.684-.554,1-.865.606-.6.98-1.441,1.689-1.913a2.285,2.285,0,0,1,2.907.429,1.645,1.645,0,0,0,.475.487,4.266,4.266,0,0,1,.408.161.793.793,0,0,1,.254.8,8.42,8.42,0,0,0-.053,1.806,4.359,4.359,0,0,1,.6,5.639c.04.386.083.771.136,1.157a2.18,2.18,0,0,0,.036.217,1.493,1.493,0,0,0,.577-.472c.211-.311.211-.742.464-1.009a1.571,1.571,0,0,1,.656-.32,4.317,4.317,0,0,0,1.582-.958,3.337,3.337,0,0,1,1.155-.89,27.471,27.471,0,0,1,2.279-4.4,7.917,7.917,0,0,0,.608-1.041,13.533,13.533,0,0,0,.6-2.637c.531-2.471,2.307-4.594,2.532-7.115A11.27,11.27,0,0,1,24.957,1.9,3.148,3.148,0,0,1,25.891.317a1.865,1.865,0,0,1,2.226.108A2.636,2.636,0,0,1,29,2.544a1.867,1.867,0,0,1-.3,1.031A3.707,3.707,0,0,1,27.6,4.4a4.6,4.6,0,0,0-1.975,2.8c-.484,2.089-.352,4.238-1.026,6.271s-1.524,4.011-2.081,6.082a18.971,18.971,0,0,1-1.066,3.484,5.31,5.31,0,0,1-1.013,1.451c.124.724.218,1.453.289,2.177a.835.835,0,0,0-.673.446,2.181,2.181,0,0,0-.233.809c-.162,1.206.321,2.425.187,3.633a18.421,18.421,0,0,0,1.648,9.825,10.594,10.594,0,0,1,.783,4.235c-1.145,0-2.076.8-3.089,1.374a4.432,4.432,0,0,0,.344,1.865,10.223,10.223,0,0,1,.729,3.4l.839,8.577a13.3,13.3,0,0,1,.048,3.28,14.158,14.158,0,0,0-.564,3.713c.316,2.614-.679,5.26-.307,7.865.071.5.19.979.289,1.483a16.893,16.893,0,0,1,.314,3.993c-.106,2.674-.838,5.353-.317,7.972.043.176.122.416.3.456-.184.252-.38.5-.582.757a.608.608,0,0,0,.2.171,1.869,1.869,0,0,0,.815.124,1.683,1.683,0,0,1,.942.2,1.284,1.284,0,0,1,.45.653,1.862,1.862,0,0,1-.088,1.577,1.745,1.745,0,0,1-.651.6A2.923,2.923,0,0,1,20.675,94,8.885,8.885,0,0,1,19.025,93.8Z" transform="translate(119 62)" fill="url(#linear-gradient-2)"/>
    <path id="Path-43" data-name="Path" d="M7.461,1.063a1.524,1.524,0,0,1,.95.235,1.564,1.564,0,0,1,.455.767A2.5,2.5,0,0,1,8.774,3.91a1.873,1.873,0,0,1-.657.7A4.063,4.063,0,0,1,5,4.766L.912,3.853a1.251,1.251,0,0,1-.682-.3A1.161,1.161,0,0,1,.11,2.368a2.145,2.145,0,0,1,.767-.891,8.417,8.417,0,0,1,3.9-1.37c.511-.071.989-.261,1.372.152.2.217.194.487.48.663a1.669,1.669,0,0,0,.828.143Z" transform="translate(133 152)" fill="#3f3d56"/>
    <path id="Path-44" data-name="Path" d="M7.462,1.064a1.515,1.515,0,0,1,.948.235,1.527,1.527,0,0,1,.455.766A2.485,2.485,0,0,1,8.775,3.91a1.9,1.9,0,0,1-.656.7A4.067,4.067,0,0,1,5,4.766L.914,3.851a1.248,1.248,0,0,1-.682-.3A1.16,1.16,0,0,1,.109,2.365a2.19,2.19,0,0,1,.779-.891A8.568,8.568,0,0,1,4.79.108C5.3.033,5.779-.154,6.162.256c.2.217.194.487.478.662a1.651,1.651,0,0,0,.822.146Z" transform="translate(126 151)" fill="#3f3d56"/>
    <path id="Path-45" data-name="Path" d="M8.7,1.441a46.139,46.139,0,0,0-6.747.524,1.329,1.329,0,0,0-.427.114c-.474.249-.488.924-.476,1.466C1.08,5.75.34,7.885.1,10.072A18.518,18.518,0,0,0,.137,14.2a15.686,15.686,0,0,1,.156,1.851c0,.552-.09,1.1-.112,1.655a15.251,15.251,0,0,0,.127,2.212,23.2,23.2,0,0,0,.545,3.429c.505,1.916.164,3.911.217,5.894A35.726,35.726,0,0,1,1.023,33.4c-.051.586-.132,1.168-.149,1.757-.051,1.74.457,3.479.276,5.219-.085.81-.293,1.74.212,2.366.161.2.378.343.547.534a.754.754,0,0,1,.215.7c-.068.2-.256.34-.286.544-.049.321.3.544.6.646a5.534,5.534,0,0,0,6.3-2.3c-.259-.015-.586-.169-.618-.43a2.818,2.818,0,0,1,.085-.778,3.081,3.081,0,0,0-.081-1.359c-.088-.308-.225-.6-.32-.907a9.362,9.362,0,0,1-.227-1.039,17.79,17.79,0,0,0-1.109-3.653c-.488-1.138-.107-2.381-.1-3.618a7.108,7.108,0,0,1,.059-1.752c.085-.338.244-.649.337-.994a4.357,4.357,0,0,0-.3-2.371c.977-2.306,1.1-4.95,1.3-7.455L8.1,14.279a4.054,4.054,0,0,1,.43-1.807A21.74,21.74,0,0,1,9.55,17.979a8.281,8.281,0,0,0,.183,1.613c.154.581.452,1.113.654,1.682a21.1,21.1,0,0,1,.6,3.924c.081.532.2,1.054.278,1.585a19.022,19.022,0,0,1-.755,7.02,25.5,25.5,0,0,0-.357,4.426c-.073,1.389-.147,2.778-.112,4.17a6.632,6.632,0,0,1-.549,3.728,6.578,6.578,0,0,0,2.383.867,4.161,4.161,0,0,0,2.742-.845A9,9,0,0,0,16.624,44c-.171-.04-.244-.276-.286-.447-.5-2.562.205-5.194.31-7.8a16.889,16.889,0,0,0-.3-3.906c-.1-.5-.212-.967-.281-1.454-.354-2.55.606-5.141.3-7.7a14.181,14.181,0,0,1,.547-3.638,13.087,13.087,0,0,0-.044-3.2l-.8-8.387a10.091,10.091,0,0,0-.7-3.327C14.8,2.9,15.152,1.369,15.091,0A16.511,16.511,0,0,1,8.7,1.441Z" transform="translate(123 107)" fill="#46455b"/>
    <path id="Path-46" data-name="Path" d="M.088,20.35a26.237,26.237,0,0,1,2.8-5.295,7.715,7.715,0,0,0,.637-1.026,12.392,12.392,0,0,0,.631-2.592C4.723,9,6.586,6.916,6.824,4.444a10.5,10.5,0,0,1,.921-2.58A3.107,3.107,0,0,1,8.724.311a2.062,2.062,0,0,1,2.329.1A2.51,2.51,0,0,1,12,2.516a1.771,1.771,0,0,1-.318,1.014,3.806,3.806,0,0,1-1.141.807A4.551,4.551,0,0,0,8.464,7.084c-.509,2.055-.371,4.166-1.08,6.166S5.792,17.2,5.2,19.243A18.415,18.415,0,0,1,4.079,22.67,4.28,4.28,0,0,1,1.343,25a6.651,6.651,0,0,0-.6-2.15C.367,22.061-.225,21.151.088,20.35Z" transform="translate(137 62)" fill="#a0616a"/>
    <path id="Path-47" data-name="Path" d="M4.726,21.822a11.571,11.571,0,0,0-1.079-4.188A4.1,4.1,0,0,1,3.1,16.069a4.034,4.034,0,0,1,.338-1.506,39.575,39.575,0,0,0,1.3-5.2l.671-3.31a5,5,0,0,0,.79-.941A4.636,4.636,0,0,0,7,2.777,3.192,3.192,0,0,0,6.2.483,1.322,1.322,0,0,0,5.2,0a1.209,1.209,0,0,0-.836.5,4.058,4.058,0,0,0-.62,1.394,6.271,6.271,0,0,0-.379,2.526c.1.7.437,1.468.09,2.085a50.851,50.851,0,0,0-2.77,6.47A11.079,11.079,0,0,0,.156,14.58a8.663,8.663,0,0,0-.092,2.688,36.039,36.039,0,0,0,.948,4.977A4.546,4.546,0,0,0,2.4,25,16.4,16.4,0,0,1,4.726,21.822Z" transform="translate(120 65)" fill="#a0616a"/>
    <circle id="Oval-12" data-name="Oval" cx="4.5" cy="4.5" r="4.5" transform="translate(125 77)" fill="#a0616a"/>
    <path id="Path-48" data-name="Path" d="M1.538,3.374A6.343,6.343,0,0,1,.878,5.666C.687,6.107.436,6.6,0,6.7A18.389,18.389,0,0,0,3.805,7.889a3.842,3.842,0,0,0,1.359.085,3.1,3.1,0,0,0,1.083-.438A6.092,6.092,0,0,0,9,3.158,6.7,6.7,0,0,1,7.493,3.2a1.052,1.052,0,0,1-.771-.312A1.342,1.342,0,0,1,6.5,2.2Q6.37,1.1,6.289,0A7.428,7.428,0,0,0,3.4.724c-.377.18-.745.389-1.135.543-.236.093-.918.111-1.083.278C.927,1.811,1.552,2.818,1.538,3.374Z" transform="translate(126 84)" fill="#a0616a"/>
    <path id="Path-49" data-name="Path" d="M8.79,7.184A2.773,2.773,0,0,0,6.446,4.948,5.3,5.3,0,0,1,5.07,4.776c-.731-.317-1.038-1.24-1.746-1.6a1.861,1.861,0,0,0-2.148.582,4.815,4.815,0,0,0-.9,2.205A10.719,10.719,0,0,0,.035,9.228,1.471,1.471,0,0,0,.191,9.8a2.494,2.494,0,0,0,.526.54,2.614,2.614,0,0,1,.838,2,5.887,5.887,0,0,0,.4,2.059c.613,1.822,1.228,3.646,1.761,5.494a3.576,3.576,0,0,1,.19,1.06,5.777,5.777,0,0,0-.131,1.531,6,6,0,0,1,.208.708,1.828,1.828,0,0,1-.072.551C3.575,25.2,2.611,28.525,2.778,30a37.4,37.4,0,0,1,7.8-1.544,17.112,17.112,0,0,1,1.92-.113c1.538,0,3.151.291,4.586-.275,1.331-.515,2.435-1.755,3.866-1.76a10.775,10.775,0,0,0-.79-4.29A18.647,18.647,0,0,1,18.5,12.061c.133-1.225-.354-2.46-.187-3.682a2.209,2.209,0,0,1,.233-.821.861.861,0,0,1,.684-.455,27.111,27.111,0,0,0-1.115-5.646C17.911.8,17.537.046,16.855,0c-.615-.041-1.069.515-1.513.95a4.355,4.355,0,0,1-1.6.97,1.574,1.574,0,0,0-.667.327c-.256.27-.256.71-.469,1.029-.369.571-1.313.625-1.538,1.264a3.917,3.917,0,0,0-.1.571,2.039,2.039,0,0,1-.605.973A3.907,3.907,0,0,1,8.79,7.184Z" transform="translate(121 82)" fill="#2f2e41"/>
    <path id="Path-50" data-name="Path" d="M7.807,2.2a.787.787,0,0,0-.246-.79,3.7,3.7,0,0,0-.4-.163A1.64,1.64,0,0,1,6.7.76,2.187,2.187,0,0,0,3.877.338c-.692.467-1.054,1.295-1.645,1.89-.3.309-.665.55-.97.858A4.464,4.464,0,0,0,.132,5.46,13.12,13.12,0,0,0,.026,8.135a2.408,2.408,0,0,0,.113.8A2.126,2.126,0,0,0,.5,9.51a6.735,6.735,0,0,0,2.908,2.223,4.046,4.046,0,0,0,3.543-.309.637.637,0,0,0,.246-.251.8.8,0,0,0,0-.482,3.321,3.321,0,0,1,.17-1.865,12.482,12.482,0,0,0,.547-1.267,4.321,4.321,0,0,0,.039-1.506A15.8,15.8,0,0,1,7.807,2.2Z" transform="translate(124 75)" fill="#46455b"/>
    <path id="Path-51" data-name="Path" d="M0,0C0,24.871,15.654,45,35,45" transform="translate(205 145)" fill="#46455b"/>
    <path id="Path-52" data-name="Path" d="M0,45C0,20.125,17.441,0,39,0" transform="translate(240 144)" fill="#6c63ff"/>
    <path id="Path-53" data-name="Path" d="M0,0C0,23.767,9.837,43,22,43" transform="translate(218 146)" fill="#6c63ff"/>
    <path id="Path-54" data-name="Path" d="M0,58C0,25.941,20.126,0,45,0" transform="translate(241 131)" fill="#46455b"/>
    <ellipse id="Oval-13" data-name="Oval" cx="8.5" cy="1.5" rx="8.5" ry="1.5" transform="translate(231 195)" fill="#6c63ff" opacity="0.1"/>
    <path id="Path-55" data-name="Path" d="M0,2.574s4.837-.146,6.3-1.168S13.737-.838,14.1.8,21.367,8.955,15.907,9,3.218,8.161,1.762,7.295,0,2.574,0,2.574Z" transform="translate(233 188)" fill="#a8a8a8"/>
    <path id="Path-56" data-name="Path" d="M16,6.385c-5.46.048-12.69-.913-14.145-1.858C.751,3.8.309,1.2.163,0H0S.306,4.187,1.762,5.14,10.445,7.053,15.908,7C17.482,6.984,18.029,6.382,18,5.49,17.786,6.053,17.186,6.374,16,6.385Z" transform="translate(233 190)" opacity="0.2"/>
    <path id="Path-57" data-name="Path" d="M31.038,5.175a1.873,1.873,0,0,0,.347-1.05c0-2.28-4.7-4.125-10.5-4.125s-10.5,1.845-10.5,4.125A1.931,1.931,0,0,0,10.8,5.3C4.348,6.008,0,7.343,0,8.875,0,11.153,9.612,13,21.5,13S43,11.153,43,8.875C43.008,7.262,38.121,5.85,31.038,5.175Z" transform="translate(175 4)" fill="#6c63ff" opacity="0.1"/>
    <path id="Path-58" data-name="Path" d="M31.018,5.175a1.873,1.873,0,0,0,.347-1.05c0-2.28-4.7-4.125-10.5-4.125s-10.5,1.845-10.5,4.125A1.931,1.931,0,0,0,10.8,5.3C4.348,6.008,0,7.343,0,8.875,0,11.153,9.624,13,21.5,13S43,11.153,43,8.875C42.987,7.262,38.1,5.85,31.018,5.175Z" transform="translate(46 9)" fill="#6c63ff" opacity="0.1"/>
    <path id="Path-59" data-name="Path" d="M0,2.478a1.591,1.591,0,0,1,1.867.514,4.032,4.032,0,0,1,.646,1.848C2.748,6.275,2.92,7.921,1.867,9,3.587,4.207,8.532.536,14,0" transform="translate(151 8)" fill="none" stroke="#6c63ff" stroke-miterlimit="10" stroke-width="3" opacity="0.1"/>
    <path id="Path-60" data-name="Path" d="M0,1.661A.843.843,0,0,1,1.067,2a2.828,2.828,0,0,1,.371,1.232A3.539,3.539,0,0,1,1.069,6,8.555,8.555,0,0,1,8,0" transform="translate(67 34)" fill="none" stroke="#6c63ff" stroke-miterlimit="10" stroke-width="3" opacity="0.1"/>
    <path id="Path-61" data-name="Path" d="M0,1.661A.843.843,0,0,1,1.067,2a2.828,2.828,0,0,1,.371,1.232A3.539,3.539,0,0,1,1.069,6,8.555,8.555,0,0,1,8,0" transform="translate(181 41)" fill="none" stroke="#6c63ff" stroke-miterlimit="10" stroke-width="3" opacity="0.1"/>
    <path id="Path-62" data-name="Path" d="M4.5,8V1.925l2.8,2.8L8,4,4,0,0,4l.7.7L3.5,1.925V8Z" transform="translate(167 120)" fill="#6c63ff" opacity="0.1"/>
    <path id="Path-63" data-name="Path" d="M4.5,8V1.925l2.8,2.8L8,4,4,0,0,4l.7.7L3.5,1.925V8Z" transform="translate(106 140)" fill="#6c63ff" opacity="0.1"/>
    <path id="Path-64" data-name="Path" d="M4.5,8V1.925l2.8,2.8L8,4,4,0,0,4l.7.7L3.5,1.925V8Z" transform="translate(151 159)" fill="#6c63ff" opacity="0.1"/>
  </g>
</svg>
